<?xml version="1.0" encoding="utf-8"?>
<!-- Generator: Adobe Illustrator 16.0.0, SVG Export Plug-In . SVG Version: 6.00 Build 0)  -->
<!DOCTYPE svg PUBLIC "-//W3C//DTD SVG 1.1//EN" "http://www.w3.org/Graphics/SVG/1.1/DTD/svg11.dtd">
<svg version="1.1" id="Layer_1" xmlns="http://www.w3.org/2000/svg" xmlns:xlink="http://www.w3.org/1999/xlink" x="0px" y="0px"
	 width="512px" height="512px" viewBox="0 0 512 512" enable-background="new 0 0 512 512" xml:space="preserve">
<g>
	<g>
		<path fill="#000F08" d="M456.828,441.379H349.196c27.42-10.952,48.389-26.532,64.374-45.4
			c65.231-9.902,94.458-63.846,94.458-113.496c0-35.246-19.627-64.674-45.028-69.819c0.003-0.268,0.006-0.534,0.008-0.801
			c0-4.414-1.767-8.827-5.297-12.358c-3.531-3.531-7.945-5.297-12.359-5.297H39.283c-4.414,0-8.828,1.766-12.359,5.297
			c-3.53,3.531-5.297,7.944-5.297,12.358c0.684,94.94,17.222,190.937,113.812,229.518H26.924c-12.358,0-22.951,9.71-22.951,22.951
			c0,10.594,7.062,18.538,19.421,21.187l112.109,7.945c2.648,0,5.297,1.766,6.18,4.414c4.414,8.827,13.24,14.124,22.951,14.124
			h146.539c9.71,0,18.538-5.298,22.068-14.124c0.883-2.648,3.531-4.414,6.18-4.414l120.055-7.945h0.883
			c12.359-2.648,19.421-10.593,19.421-21.187C479.779,451.972,470.069,441.379,456.828,441.379z M463.008,231.283
			c15.007,5.297,26.482,26.482,26.482,51.199c0,34.4-15.867,75.851-59.925,90.888c0.738-1.253,1.46-2.517,2.167-3.789
			C456.249,327.054,461.294,275.842,463.008,231.283z M39.283,211.862h406.069c-0.883,119.173-26.483,229.518-203.034,229.518
			S40.166,331.034,39.283,211.862z M458.594,467.862l-118.29,7.945c-8.828,0.883-16.772,6.179-21.187,14.124
			c-1.766,2.647-4.414,4.414-7.062,4.414H164.635c-2.647,0-5.297-1.767-7.062-4.414c-4.414-7.945-12.359-13.241-21.186-14.124
			l-110.346-7.945c-4.414-0.883-4.414-2.647-4.414-3.531c0-2.647,2.648-5.297,5.297-5.297h430.786c2.647,0,5.297,2.648,5.297,5.297
			C463.008,465.214,463.008,466.979,458.594,467.862z"/>
		<path fill="#000F08" d="M236.138,73.269c-13.241,13.241-20.304,26.483-20.304,40.607s7.063,28.248,20.304,42.372
			c1.766,1.766,3.53,2.647,6.179,2.647c2.647,0,4.414-0.883,6.179-2.647c3.531-3.531,3.531-8.828,0-12.359
			c-9.71-10.593-15.007-20.303-15.007-30.014s5.297-19.421,15.007-28.248C261.738,73.269,268.8,59.145,268.8,45.021
			s-6.179-29.131-20.303-42.372c-3.531-3.53-8.828-3.53-12.358,0c-3.531,3.531-3.531,8.828,0,12.359
			c9.71,10.593,15.007,20.303,15.007,30.014S245.848,64.441,236.138,73.269z"/>
		<path fill="#000F08" d="M312.938,113.876c0,14.124,7.062,28.248,20.303,42.372c1.767,1.766,3.531,2.647,6.18,2.647
			c1.766,0,4.413-0.883,5.297-2.647c3.53-3.531,3.53-8.828,0-12.359c-9.71-10.593-15.007-20.303-15.007-30.014
			s5.297-19.421,15.007-28.248c14.124-12.359,21.186-26.483,21.186-40.607c0-15.007-6.179-29.131-20.303-42.372
			c-3.531-3.53-8.828-3.53-12.359,0c-3.53,3.531-3.53,8.828,0,12.359c9.71,10.593,15.007,20.303,15.007,30.014
			s-5.297,18.538-15.007,28.248C320,86.51,312.938,99.752,312.938,113.876z"/>
		<path fill="#000F08" d="M127.559,113.876c0,14.124,7.062,28.248,20.303,42.372c1.766,1.766,3.531,2.647,6.179,2.647
			c1.767,0,4.414-0.883,5.297-2.647c3.531-3.531,3.531-8.828,0-12.359c-9.71-10.593-15.007-20.303-15.007-30.014
			s5.297-19.421,15.007-28.248c14.124-12.359,21.187-26.483,21.187-40.607c0-15.007-6.179-29.131-20.303-42.372
			c-3.531-3.53-8.828-3.53-12.359,0c-3.531,3.531-3.531,8.828,0,12.359c9.71,10.593,15.007,20.303,15.007,30.014
			s-5.297,18.538-15.007,28.248C134.621,86.51,127.559,99.752,127.559,113.876z"/>
		<path fill="#000F08" d="M191.117,397.241c-62.676-10.594-94.455-45.903-107.697-116.524c-0.883-4.414-6.179-7.945-10.593-7.063
			c-4.414,0.884-7.945,6.18-7.062,10.594c14.124,78.564,52.083,118.29,121.82,130.647c0.884,0,0.884,0,1.767,0
			c4.414,0,7.944-2.647,8.828-7.062C199.062,402.538,195.531,398.124,191.117,397.241z"/>
	</g>
	<g>
		<g>
			<g>
				<path fill="#000F08" d="M267.72,232.726l-6.18-1.785c-0.795-0.279-1.578-0.191-2.34,0.264c-0.765,0.454-1.281,1.138-1.545,2.047
					l-37.163,135.547c-0.265,0.911-0.182,1.77,0.25,2.573c0.432,0.805,1.078,1.348,1.943,1.627l6.177,1.786
					c0.797,0.281,1.578,0.193,2.341-0.263c0.764-0.457,1.279-1.137,1.544-2.046l37.164-135.549c0.265-0.91,0.182-1.769-0.251-2.573
					C269.229,233.548,268.584,233.005,267.72,232.726z"/>
				<path fill="#000F08" d="M212.028,259.186c0-0.909-0.333-1.715-0.997-2.414l-4.982-5.25c-0.664-0.7-1.428-1.051-2.292-1.051
					s-1.628,0.352-2.292,1.051l-46.427,48.926c-0.665,0.7-0.997,1.506-0.997,2.415c0,0.91,0.333,1.716,0.997,2.415l46.427,48.926
					c0.664,0.701,1.427,1.05,2.292,1.05s1.627-0.35,2.292-1.05l4.982-5.246c0.664-0.699,0.997-1.506,0.997-2.417
					c0-0.908-0.333-1.714-0.997-2.413l-39.154-41.265l39.155-41.261C211.696,260.902,212.028,260.096,212.028,259.186z"/>
				<path fill="#000F08" d="M335.367,300.447l-46.428-48.927c-0.664-0.699-1.43-1.05-2.291-1.05c-0.865,0-1.627,0.351-2.293,1.05
					l-4.98,5.25c-0.663,0.699-0.994,1.504-0.994,2.415c0,0.91,0.331,1.715,0.994,2.415l39.156,41.263l-39.156,41.265
					c-0.663,0.699-0.994,1.505-0.994,2.413c0,0.911,0.331,1.718,0.994,2.417l4.98,5.246c0.666,0.701,1.428,1.05,2.293,1.05
					c0.863,0,1.627-0.35,2.291-1.05l46.428-48.926c0.664-0.699,0.996-1.506,0.996-2.416S336.031,301.146,335.367,300.447z"/>
			</g>
		</g>
		<g>
		</g>
		<g>
		</g>
		<g>
		</g>
		<g>
		</g>
		<g>
		</g>
		<g>
		</g>
		<g>
		</g>
		<g>
		</g>
		<g>
		</g>
		<g>
		</g>
		<g>
		</g>
		<g>
		</g>
		<g>
		</g>
		<g>
		</g>
		<g>
		</g>
	</g>
</g>
</svg>
